<?xml version="1.0" encoding="utf-8"?>
<!-- Generator: Adobe Illustrator 24.3.0, SVG Export Plug-In . SVG Version: 6.00 Build 0)  -->
<svg version="1.1" id="Layer_1" xmlns="http://www.w3.org/2000/svg" xmlns:xlink="http://www.w3.org/1999/xlink" x="0px" y="0px"
	 viewBox="0 0 275 400" style="enable-background:new 0 0 275 400;" xml:space="preserve">
<style type="text/css">
	.st0{opacity:0.2;fill:#FFFFFF;}
</style>
<g>
	<path class="st0" d="M149.69,202.62c-4.89-38.69-35.33-68.98-74.03-73.67l2.6-21.44c48.55,5.88,86.73,43.88,92.86,92.41
		L149.69,202.62z"/>
	<path class="st0" d="M199,202.15c-2.62-31.57-16.46-61.32-38.98-83.77c-22.52-22.45-52.33-36.2-83.92-38.71l1.71-21.53
		c36.7,2.92,71.31,18.88,97.46,44.95c26.14,26.06,42.21,60.61,45.25,97.29L199,202.15z"/>
	<path class="st0" d="M251.01,201.92c-5.71-93.86-80.8-168.77-174.67-174.24l1.26-21.56c104.78,6.11,188.61,89.73,194.98,194.5
		L251.01,201.92z"/>
	<path class="st0" d="M168.49,220.32c-4.12-1-43.9-0.12-43.9-0.12l-11.69-35.15c0,0-2.11-7.3-6-10.87
		c-3.89-3.57-13.47-5.84-13.47-5.84H16.57H5H0v20.32l5,0.01v0.02l5.15-0.01l6.42,0.01v-0.03l75.66-0.18l18.13,55.07H8.79H5.91H0
		v126.89l5.91,0.02v0.01l1.34-0.01l1.53,0.01v-0.01l102.26-0.4V400h61.79V295.54c0,0,1.27-2.55-1.91-11.47
		c-3.18-8.92-26.12-28.66-26.12-28.66l24.65-9.84c0,0,5.53-0.81,7.27-6.29C178.47,233.79,172.61,221.32,168.49,220.32z
		 M146.31,292.68c0.86,3.26,1.2,16.48-1.2,20.26c-2.4,3.78-10.13,3.78-10.13,3.78s-44.11-0.46-49.27-0.69
		c-7.73-0.34-6.87-8.93-6.87-8.93s-1.72-6.87,5.84-10.81c4.57-2.39,50.13-11.5,53.56-10.99
		C141.68,285.82,145.46,289.42,146.31,292.68z"/>
</g>
</svg>
