<?xml version="1.0" encoding="UTF-8"?>
<svg width="20px" height="20px" viewBox="0 0 24 24" version="1.1" xmlns="http://www.w3.org/2000/svg" xmlns:xlink="http://www.w3.org/1999/xlink">
    <!-- Generator: Sketch 64 (93537) - https://sketch.com -->
    <title>Icon / Trash</title>
    <desc>Created with Sketch.</desc>
    <g id="Icon-/-Trash" stroke="none" stroke-width="1" fill="none" fill-rule="evenodd">
        <g id="Group" fill="#000000">
            <g id="bin-1">
                <path d="M22.5,3.75 C22.9142136,3.75 23.25,4.08578644 23.25,4.5 C23.25,4.87969577 22.9678461,5.19349096 22.6017706,5.24315338 L22.5,5.25 L20.94,5.25 L19.6124329,21.186 C19.5200641,22.299541 18.6274145,23.1678591 17.5283494,23.2444964 L17.37,23.25 L6.631,23.25 C5.46041448,23.25 4.48533445,22.3525668 4.38859316,21.1863139 L4.38859316,21.1863139 L3.059,5.25 L1.5,5.25 C1.08578644,5.25 0.75,4.91421356 0.75,4.5 C0.75,4.12030423 1.03215388,3.80650904 1.39822944,3.75684662 L1.5,3.75 L7.5,3.75 L7.5,3 C7.5,1.80913601 8.42516159,0.834355084 9.59595119,0.755190813 L9.75,0.75 L14.25,0.75 C15.4926407,0.75 16.5,1.75735931 16.5,3 L16.5,3 L16.5,3.75 L22.5,3.75 Z M19.434,5.25 L4.565,5.25 L5.88343294,21.062 C5.91275561,21.4154957 6.18404767,21.694867 6.52634996,21.7427403 L6.52634996,21.7427403 L6.631,21.75 L17.37,21.75 C17.7602742,21.75 18.0853121,21.4508453 18.1175894,21.0617308 L18.1175894,21.0617308 L19.434,5.25 Z M9.75,9 C10.1296958,9 10.443491,9.28215388 10.4931534,9.64822944 L10.5,9.75 L10.5,17.25 C10.5,17.6642136 10.1642136,18 9.75,18 C9.37030423,18 9.05650904,17.7178461 9.00684662,17.3517706 L9,17.25 L9,9.75 C9,9.33578644 9.33578644,9 9.75,9 Z M14.25,9 C14.6296958,9 14.943491,9.28215388 14.9931534,9.64822944 L15,9.75 L15,17.25 C15,17.6642136 14.6642136,18 14.25,18 C13.8703042,18 13.556509,17.7178461 13.5068466,17.3517706 L13.5,17.25 L13.5,9.75 C13.5,9.33578644 13.8357864,9 14.25,9 Z M14.25,2.25 L9.75,2.25 C9.33578644,2.25 9,2.58578644 9,3 L9,3 L9,3.75 L15,3.75 L15,3 C15,2.62030423 14.7178461,2.30650904 14.3517706,2.25684662 L14.3517706,2.25684662 L14.25,2.25 Z" id="Combined-Shape"></path>
            </g>
        </g>
    </g>
</svg>